<?xml version="1.0" encoding="utf-8"?>
<!-- Generator: Adobe Illustrator 16.0.0, SVG Export Plug-In . SVG Version: 6.00 Build 0)  -->
<!DOCTYPE svg PUBLIC "-//W3C//DTD SVG 1.1//EN" "http://www.w3.org/Graphics/SVG/1.1/DTD/svg11.dtd">
<svg version="1.1" id="Capa_1" xmlns="http://www.w3.org/2000/svg" xmlns:xlink="http://www.w3.org/1999/xlink" x="0px" y="0px"
	 width="649.875px" height="480px" viewBox="0 0 649.875 480" enable-background="new 0 0 649.875 480" xml:space="preserve">
<g>
	<path fill="#FFFFFF" d="M0,0v50h49.833V0H0z M45.727,4.156c0,3.608,0,38.078,0,41.691c-3.57,0-38.051,0-41.62,0
		c0-3.613,0-38.083,0-41.691C7.674,4.153,42.157,4.153,45.727,4.156z"/>
	<path fill="#FFFFFF" d="M19.553,32.206L6.456,26.438v-3.19l13.097-5.738v3.759l-9.126,3.537l9.126,3.672V32.206z"/>
	<path fill="#FFFFFF" d="M20.767,34.736l4.741-19.983h2.746L23.46,34.736H20.767z"/>
	<path fill="#FFFFFF" d="M29.45,32.206V28.48l9.144-3.651l-9.144-3.608v-3.709l13.11,5.742v3.163
		C42.56,26.42,29.45,32.206,29.45,32.206z"/>
</g>
<g>
	<path fill="#FFFFFF" d="M53.121,0l4.005,44.932l17.978,4.991l18.025-4.999L97.141,0H53.121z M89.697,42.065l-14.491,4.016v0.023
		l-0.038-0.011l-0.038,0.011v-0.023L60.64,42.065L57.215,3.672h35.906L89.697,42.065z M81.896,25.848l-0.637,7.145l-6.14,1.657
		l-0.013,0.004L68.969,33l-0.393-4.398h-5.532l0.771,8.654l11.291,3.133h0.005h0.008l0.012-0.004l11.279-3.129l1.513-16.917H67.837
		l-0.501-5.643h21.067h0.019l0.494-5.511H61.311l1.487,16.664H81.896L81.896,25.848z"/>
</g>
<g>
	<polygon fill="#FFFFFF" points="107.34,2 105.672,10.395 139.818,10.395 138.744,15.794 104.571,15.794 102.931,24.188 
		137.076,24.188 135.154,33.771 121.417,38.321 109.488,33.771 110.309,29.616 101.913,29.616 99.906,39.678 119.637,47.225 
		142.361,39.678 149.88,2 	"/>
</g>
<g>
	<path fill="#010002" d="M0,49.923v50h49.833v-50H0z M45.727,54.079c0,3.608,0,38.078,0,41.691c-3.57,0-38.051,0-41.62,0
		c0-3.613,0-38.083,0-41.691C7.674,54.076,42.157,54.076,45.727,54.079z"/>
	<path fill="#010002" d="M19.553,82.128L6.456,76.361v-3.19l13.097-5.738v3.759l-9.126,3.537l9.126,3.672V82.128z"/>
	<path fill="#010002" d="M20.767,84.659l4.741-19.983h2.746L23.46,84.659H20.767z"/>
	<path fill="#010002" d="M29.45,82.128v-3.725l9.144-3.651l-9.144-3.608v-3.709l13.11,5.742v3.163
		C42.56,76.343,29.45,82.128,29.45,82.128z"/>
</g>
<g>
	<path d="M53.121,49.923l4.005,44.932l17.978,4.991l18.025-4.999l4.011-44.924H53.121z M89.697,91.988l-14.491,4.016v0.023
		l-0.038-0.011l-0.038,0.011v-0.023L60.64,91.988l-3.424-38.393h35.906L89.697,91.988z M81.896,75.771l-0.637,7.145l-6.14,1.657
		l-0.013,0.004l-6.137-1.654l-0.393-4.398h-5.532l0.771,8.654l11.291,3.133h0.005h0.008l0.012-0.004l11.279-3.129l1.513-16.917
		H67.837l-0.501-5.643h21.067h0.019l0.494-5.511H61.311l1.487,16.664H81.896L81.896,75.771z"/>
</g>
<g>
	<polygon points="107.34,51.923 105.672,60.318 139.818,60.318 138.744,65.717 104.571,65.717 102.931,74.111 137.076,74.111 
		135.154,83.693 121.417,88.244 109.488,83.693 110.309,79.539 101.913,79.539 99.906,89.601 119.637,97.148 142.361,89.601 
		149.88,51.923 	"/>
</g>
<path fill-rule="evenodd" clip-rule="evenodd" d="M198.544,85.864c-0.273,0.522-0.528,1.056-0.825,1.564
	c-2.286,3.936-5.422,6.983-9.505,9.025c-2.087,1.043-4.294,1.716-6.596,2.091c-1.823,0.297-3.658,0.403-5.499,0.333
	c-1.798-0.067-3.597-0.219-5.35-0.638c-1.593-0.38-3.12-0.972-4.608-1.66c-3.75-1.735-7.002-4.144-9.733-7.241
	c-3.278-3.717-5.446-7.995-6.375-12.877c-0.312-1.64-0.439-3.302-0.357-4.969c0.169-3.455,1.102-6.681,3.113-9.527
	c0.982-1.39,2.091-2.69,3.179-4.078c-0.269,0.683-0.532,1.304-0.758,1.938c-0.502,1.407-0.863,2.853-0.966,4.344
	c-0.082,1.183-0.161,2.376-0.102,3.558c0.139,2.764,0.804,5.417,1.883,7.967c1.652,3.902,4.132,7.205,7.298,9.996
	c3.462,3.052,7.423,5.205,11.899,6.353c1.237,0.317,2.52,0.491,3.792,0.625c1.255,0.132,2.527,0.207,3.788,0.172
	c4.285-0.12,8.314-1.144,11.91-3.576c1.365-0.922,2.578-2.016,3.627-3.287c0.042-0.051,0.087-0.099,0.131-0.147
	C198.508,85.84,198.526,85.853,198.544,85.864z"/>
<path fill-rule="evenodd" clip-rule="evenodd" d="M168.717,53.615c-0.588,1.314-0.997,2.668-1.205,4.083
	c-0.174,1.179-0.195,2.361-0.104,3.551c0.182,2.366,0.871,4.583,1.983,6.665c2.003,3.749,4.914,6.603,8.645,8.625
	c2.133,1.156,4.403,1.925,6.806,2.255c4.103,0.564,7.968-0.089,11.487-2.373c1.244-0.808,2.319-1.806,3.236-2.973
	c0.052-0.065,0.106-0.129,0.159-0.193c0.025,0.014,0.05,0.028,0.075,0.043c-0.315,0.62-0.598,1.259-0.95,1.856
	c-2.516,4.266-6.236,6.807-11.092,7.713c-1.392,0.26-2.8,0.397-4.209,0.327c-1.386-0.069-2.785-0.162-4.143-0.426
	c-1.401-0.273-2.723-0.862-4.005-1.51c-2.232-1.126-4.199-2.606-5.92-4.418c-2.315-2.437-3.905-5.274-4.721-8.539
	c-0.393-1.57-0.534-3.169-0.437-4.778c0.173-2.851,1.108-5.433,2.839-7.72C167.7,55.089,168.199,54.345,168.717,53.615z"/>
<path fill-rule="evenodd" clip-rule="evenodd" d="M198.184,64.218c-1.483,2.637-3.57,4.403-6.521,5.002
	c-6.504,1.321-12.496-2.766-14.363-8.275c-1.071-3.159-0.676-6.16,1.315-8.895c0.224-0.307,0.445-0.615,0.668-0.923
	c0.005-0.008,0.014-0.013,0.061-0.055c-0.105,0.287-0.201,0.528-0.282,0.774c-0.743,2.244-0.578,4.464,0.3,6.619
	c1.673,4.105,4.687,6.737,8.959,7.908c1.445,0.396,2.93,0.55,4.424,0.44c2.086-0.153,3.913-0.903,5.332-2.5
	C198.095,64.293,198.117,64.277,198.184,64.218z"/>
<path fill-rule="evenodd" clip-rule="evenodd" fill="#FFFFFF" d="M198.544,35.792c-0.273,0.522-0.528,1.056-0.825,1.564
	c-2.286,3.936-5.422,6.983-9.505,9.025c-2.087,1.043-4.294,1.716-6.596,2.091c-1.823,0.297-3.658,0.403-5.499,0.333
	c-1.798-0.067-3.597-0.219-5.35-0.638c-1.593-0.38-3.12-0.972-4.608-1.66c-3.75-1.735-7.002-4.144-9.733-7.241
	c-3.278-3.717-5.446-7.995-6.375-12.877c-0.312-1.64-0.439-3.302-0.357-4.969c0.169-3.455,1.102-6.681,3.113-9.527
	c0.982-1.39,2.091-2.69,3.179-4.078c-0.269,0.683-0.532,1.304-0.758,1.938c-0.502,1.407-0.863,2.853-0.966,4.344
	c-0.082,1.183-0.161,2.376-0.102,3.558c0.139,2.764,0.804,5.417,1.883,7.967c1.652,3.902,4.132,7.205,7.298,9.996
	c3.462,3.052,7.423,5.205,11.899,6.353c1.237,0.317,2.52,0.491,3.792,0.625c1.255,0.132,2.527,0.207,3.788,0.172
	c4.285-0.12,8.314-1.144,11.91-3.576c1.365-0.922,2.578-2.016,3.627-3.287c0.042-0.051,0.087-0.099,0.131-0.147
	C198.508,35.768,198.526,35.78,198.544,35.792z"/>
<path fill-rule="evenodd" clip-rule="evenodd" fill="#FFFFFF" d="M168.717,3.542c-0.588,1.314-0.997,2.668-1.205,4.083
	c-0.174,1.179-0.195,2.361-0.104,3.551c0.182,2.366,0.871,4.583,1.983,6.665c2.003,3.749,4.914,6.603,8.645,8.625
	c2.133,1.156,4.403,1.925,6.806,2.255c4.103,0.564,7.968-0.089,11.487-2.373c1.244-0.808,2.319-1.806,3.236-2.973
	c0.052-0.065,0.106-0.129,0.159-0.193c0.025,0.014,0.05,0.028,0.075,0.043c-0.315,0.62-0.598,1.259-0.95,1.856
	c-2.516,4.266-6.236,6.807-11.092,7.713c-1.392,0.26-2.8,0.397-4.209,0.327c-1.386-0.069-2.785-0.162-4.143-0.426
	c-1.401-0.273-2.723-0.862-4.005-1.51c-2.232-1.126-4.199-2.606-5.92-4.418c-2.315-2.437-3.905-5.274-4.721-8.539
	c-0.393-1.57-0.534-3.169-0.437-4.778c0.173-2.851,1.108-5.433,2.839-7.72C167.7,5.017,168.199,4.272,168.717,3.542z"/>
<path fill-rule="evenodd" clip-rule="evenodd" fill="#FFFFFF" d="M198.184,14.146c-1.483,2.637-3.57,4.403-6.521,5.002
	c-6.504,1.321-12.496-2.766-14.363-8.275c-1.071-3.159-0.676-6.16,1.315-8.895c0.224-0.307,0.445-0.615,0.668-0.923
	c0.005-0.008,0.014-0.013,0.061-0.055c-0.105,0.287-0.201,0.528-0.282,0.774c-0.743,2.244-0.578,4.464,0.3,6.619
	c1.673,4.105,4.687,6.737,8.959,7.908c1.445,0.396,2.93,0.55,4.424,0.44c2.086-0.153,3.913-0.903,5.332-2.5
	C198.095,14.221,198.117,14.205,198.184,14.146z"/>
<g>
	<path d="M247.217,54.073V54h-0.245h-44.197h-0.246v0.073c-1.446,0.1-2.525,1.25-2.696,2.646v0.246v29.123
		c0,0.565,0.147,1.041,0.393,1.47c0.564,0.994,1.397,1.496,2.549,1.496h16.129v4.068h-3.064c-0.759,0-1.348,0.591-1.348,1.349
		c0,0.759,0.589,1.35,1.348,1.35h18.066c0.76,0,1.373-0.591,1.373-1.35s-0.613-1.349-1.373-1.349h-3.064v-4.068h16.129
		c1.152,0,1.993-0.502,2.549-1.496c0.253-0.45,0.417-0.931,0.417-1.47V56.965V56.72C249.766,55.323,248.614,54.173,247.217,54.073z
		 M247.217,56.965v29.123c0,0.172-0.073,0.246-0.245,0.246h-44.197c-0.172,0-0.246-0.074-0.246-0.246V56.965V56.72h44.688V56.965
		L247.217,56.965z"/>
</g>
<g>
	<path fill="#FFFFFF" d="M247.217,3.687V3.614h-0.245h-44.197h-0.246v0.073c-1.446,0.1-2.525,1.25-2.696,2.646v0.246v29.123
		c0,0.565,0.147,1.041,0.393,1.47c0.564,0.994,1.397,1.496,2.549,1.496h16.129v4.068h-3.064c-0.759,0-1.348,0.591-1.348,1.349
		c0,0.759,0.589,1.35,1.348,1.35h18.066c0.76,0,1.373-0.591,1.373-1.35s-0.613-1.349-1.373-1.349h-3.064v-4.068h16.129
		c1.152,0,1.993-0.502,2.549-1.496c0.253-0.45,0.417-0.931,0.417-1.47V6.579V6.333C249.766,4.937,248.614,3.787,247.217,3.687z
		 M247.217,6.579v29.123c0,0.172-0.073,0.246-0.245,0.246h-44.197c-0.172,0-0.246-0.074-0.246-0.246V6.579V6.333h44.688V6.579
		L247.217,6.579z"/>
</g>
<g>
	<path d="M283.999,59h-19.527c-1.231,0-2.222,0.996-2.222,2.226v28.317c0,1.226,0.991,2.225,2.222,2.225h19.527
		c1.227,0,2.223-0.998,2.223-2.225V61.226C286.223,59.996,285.227,59,283.999,59z M274.236,90.934c-0.73,0-1.321-0.591-1.321-1.321
		c0-0.73,0.591-1.323,1.321-1.323c0.729,0,1.322,0.592,1.322,1.323C275.558,90.343,274.965,90.934,274.236,90.934z M283.973,87.133
		H264.5V61.674h19.473V87.133z"/>
</g>
<g>
	<path fill="#FFFFFF" d="M283.999,8.5h-19.527c-1.231,0-2.222,0.996-2.222,2.226v28.317c0,1.226,0.991,2.225,2.222,2.225h19.527
		c1.227,0,2.223-0.998,2.223-2.225V10.725C286.223,9.496,285.227,8.5,283.999,8.5z M274.236,40.434c-0.73,0-1.321-0.591-1.321-1.321
		c0-0.73,0.591-1.323,1.321-1.323c0.729,0,1.322,0.592,1.322,1.323C275.558,39.843,274.965,40.434,274.236,40.434z M283.973,36.633
		H264.5V11.173h19.473V36.633z"/>
</g>
<g>
	<g>
		<path fill="#010002" d="M330.609,61.137h-11.95c-0.793,0-1.438,0.621-1.438,1.385v24.864c0,0.763,0.644,1.384,1.438,1.384h11.95
			c0.795,0,1.438-0.621,1.438-1.384V62.522C332.048,61.758,331.404,61.137,330.609,61.137z M322.548,63.289h4.173v0.293h-4.173
			V63.289z M324.635,87.319c-0.445,0-0.805-0.36-0.805-0.803c0-0.443,0.359-0.803,0.805-0.803c0.442,0,0.804,0.36,0.804,0.803
			C325.438,86.96,325.077,87.319,324.635,87.319z M331.065,84.311h-12.862V65.249h12.862V84.311z"/>
	</g>
</g>
<g>
	<g>
		<path fill="#FFFFFF" d="M330.609,11.067h-11.95c-0.793,0-1.438,0.621-1.438,1.385v24.864c0,0.763,0.644,1.384,1.438,1.384h11.95
			c0.795,0,1.438-0.621,1.438-1.384V12.452C332.048,11.688,331.404,11.067,330.609,11.067z M322.548,13.219h4.173v0.293h-4.173
			V13.219z M324.635,37.249c-0.445,0-0.805-0.36-0.805-0.803c0-0.443,0.359-0.803,0.805-0.803c0.442,0,0.804,0.36,0.804,0.803
			C325.438,36.89,325.077,37.249,324.635,37.249z M331.065,34.24h-12.862V15.178h12.862V34.24z"/>
	</g>
</g>
<path fill-rule="evenodd" clip-rule="evenodd" fill="#FFFFFF" d="M382.769,73.979c7.071,2.312,6.667,11.268,3.139,14.222
	c-2.068,1.731-4.496,2.602-7.088,2.68c-5.345,0.162-10.696,0.082-16.043,0.094c-0.135,0-0.273-0.085-0.491-0.16
	c-0.029-0.425-0.082-0.856-0.082-1.29c-0.011-9.508,0.011-19.018-0.051-28.527c-0.01-1.344,0.411-1.679,1.692-1.644
	c5.439,0.148,10.909-0.086,16.318,0.378c5.228,0.448,7.968,4.998,6.495,9.883C386.066,71.585,384.685,72.881,382.769,73.979z
	 M367.994,86.246c3.672,0,7.233,0.185,10.767-0.06c2.639-0.183,3.939-2.017,3.943-4.682c0.003-2.645-1.321-4.472-3.98-4.652
	c-3.533-0.238-7.095-0.059-10.729-0.059C367.994,79.97,367.994,83.069,367.994,86.246z M368.039,64.228c0,2.835,0,5.518,0,8.234
	c3.328,0,6.538,0.106,9.735-0.038c2.163-0.097,3.45-1.77,3.481-4.037c0.035-2.518-0.928-4.021-3.053-4.119
	C374.858,64.115,371.504,64.228,368.039,64.228z"/>
<path fill-rule="evenodd" clip-rule="evenodd" fill="#FFFFFF" d="M382.769,23.335c7.071,2.312,6.667,11.268,3.139,14.222
	c-2.068,1.731-4.496,2.602-7.088,2.68c-5.345,0.162-10.696,0.082-16.043,0.094c-0.135,0-0.273-0.085-0.491-0.16
	c-0.029-0.425-0.082-0.856-0.082-1.29c-0.011-9.508,0.011-19.018-0.051-28.527c-0.01-1.344,0.411-1.679,1.692-1.644
	c5.439,0.148,10.909-0.086,16.318,0.378c5.228,0.448,7.968,4.998,6.495,9.883C386.066,20.941,384.685,22.237,382.769,23.335z
	 M367.994,35.602c3.672,0,7.233,0.185,10.767-0.06c2.639-0.183,3.939-2.017,3.943-4.682c0.003-2.645-1.321-4.472-3.98-4.652
	c-3.533-0.238-7.095-0.059-10.729-0.059C367.994,29.326,367.994,32.425,367.994,35.602z M368.039,13.584c0,2.835,0,5.518,0,8.234
	c3.328,0,6.538,0.106,9.735-0.038c2.163-0.097,3.45-1.77,3.481-4.037c0.035-2.518-0.928-4.021-3.053-4.119
	C374.858,13.471,371.504,13.584,368.039,13.584z"/>
<g>
	<path d="M418.702,62.52l3.616,3.616c0,0,0.438,0.438,0,0.986l-7.726,7.396c0,0-0.493,0.165,0,0.658l7.67,7.725
		c0,0,0.548,0.274-0.164,0.986l-3.287,3.288c0,0-0.493,0.603-1.096,0l-11.67-11.999c0,0-0.329-0.274,0-0.712l11.615-11.67
		C417.661,62.794,417.935,62.301,418.702,62.52z"/>
	<path d="M430.603,87.386l-3.616-3.616c0,0-0.438-0.438,0-0.986l7.726-7.396c0,0,0.493-0.165,0-0.657l-7.67-7.725
		c0,0-0.548-0.274,0.164-0.986l3.287-3.287c0,0,0.493-0.603,1.096,0l11.67,11.999c0,0,0.329,0.274,0,0.712l-11.615,11.67
		C431.644,87.112,431.37,87.605,430.603,87.386z"/>
</g>
<g>
	<path fill="#FFFFFF" d="M418.702,12.091l3.616,3.616c0,0,0.438,0.438,0,0.986l-7.726,7.396c0,0-0.493,0.165,0,0.658l7.67,7.725
		c0,0,0.548,0.274-0.164,0.986l-3.287,3.288c0,0-0.493,0.603-1.096,0l-11.67-11.999c0,0-0.329-0.274,0-0.712l11.615-11.67
		C417.661,12.365,417.935,11.873,418.702,12.091z"/>
	<path fill="#FFFFFF" d="M430.603,36.958l-3.616-3.616c0,0-0.438-0.438,0-0.986l7.726-7.396c0,0,0.493-0.165,0-0.657l-7.67-7.725
		c0,0-0.548-0.274,0.164-0.986l3.287-3.287c0,0,0.493-0.603,1.096,0l11.67,11.999c0,0,0.329,0.274,0,0.712l-11.615,11.67
		C431.644,36.684,431.37,37.177,430.603,36.958z"/>
</g>
<g>
	<g>
		<path fill="#353535" d="M475.053,96.119c3.539-5.126,7.103-10.234,10.688-15.326l5.418-7.723l2.709-3.861l1.354-1.931
			c0.453-0.642,0.877-1.306,1.485-1.833l0.063,1.496l-5.815-8.111L491,58.863c-1.395-0.288-2.689-0.796-3.96-1.358
			c-1.261-0.584-2.497-1.221-3.635-2.077l0.055,0.012c-2.803,0.294-5.604,0.375-8.407,0.394c-2.802,0.007-5.604-0.06-8.406-0.394
			l0.053-0.011c-1.216,0.745-2.493,1.346-3.785,1.911c-1.299,0.551-2.613,1.065-3.99,1.434l0.048-0.036l-5.795,8.205l0.042-1.343
			c0.352,0.227,0.544,0.573,0.778,0.889l0.684,0.96l1.367,1.92l2.734,3.84l5.47,7.68L475.053,96.119z M475.053,96.561
			l-11.889-14.854l-5.876-7.373l-2.938-3.686l-1.469-1.843l-0.734-0.922c-0.239-0.312-0.52-0.592-0.641-0.993l-0.305-1.008
			l0.347-0.335l7.223-6.982l0.017-0.016l0.031-0.02c1.215-0.747,2.492-1.348,3.785-1.911c1.3-0.549,2.614-1.063,3.99-1.434
			l0.03-0.008l0.022-0.002c2.803-0.334,5.604-0.401,8.406-0.394c2.803,0.019,5.604,0.1,8.407,0.394l0.055,0.012
			c1.395,0.289,2.688,0.798,3.96,1.358c1.261,0.583,2.498,1.219,3.635,2.077l0.045,0.033l7.384,6.715l0.526,0.479l-0.463,1.017
			c-0.333,0.732-0.852,1.326-1.34,1.942l-1.471,1.844l-2.941,3.688l-5.882,7.375c-3.913,4.923-7.848,9.83-11.808,14.718
			L475.053,96.561z"/>
	</g>
	<g>
		<path fill="#353535" d="M458.928,58.531l4.038,1.628l2.02,0.814l1.009,0.407c0.345,0.12,0.638,0.348,1.002,0.424l-0.261-0.059
			c0.345,0.07,0.689,0.018,1.034,0.027l1.034-0.014l2.068-0.028l4.136-0.036c2.758,0.041,5.515,0.024,8.272,0.116l-0.23,0.051
			l7.949-3.241l0.111,0.241l-7.599,3.992l-0.089,0.046l-0.143,0.005c-2.758,0.092-5.515,0.075-8.272,0.116l-4.136-0.036
			l-2.068-0.028l-1.034-0.014c-0.345,0.009-0.689-0.043-1.034,0.027l-0.15,0.031l-0.11-0.089c-0.291-0.233-0.653-0.314-0.965-0.503
			l-0.956-0.52l-1.913-1.039l-3.826-2.079L458.928,58.531z"/>
	</g>
	<g>
		<path fill="#353535" d="M453.481,66.091l7.686,7.019l-0.429-0.178c4.762-0.048,9.523-0.023,14.285-0.034l14.284,0.099
			l-0.386,0.162l7.522-7.067l0.189,0.187l-6.94,7.64l-0.146,0.16l-0.24,0.002l-14.284,0.099c-4.762-0.011-9.523,0.014-14.285-0.034
			l-0.27-0.002l-0.159-0.175l-7.016-7.688L453.481,66.091z"/>
	</g>
	<g>
		<polygon fill="#353535" points="460.188,73.265 466.165,62.299 466.403,62.417 461.288,73.811 		"/>
	</g>
	<g>
		<polygon fill="#353535" points="488.871,73.778 483.164,62.633 483.396,62.505 489.744,73.298 		"/>
	</g>
	<path fill="none" stroke="#353535" stroke-width="0.2656" stroke-miterlimit="10" d="M489.308,73.929"/>
	<g>
		<polygon fill="#353535" points="489.695,74.026 475.486,96.613 475.056,97.297 474.623,96.617 460.241,73.989 461.599,73.146 
			475.484,96.083 474.621,96.086 488.193,73.11 		"/>
	</g>
</g>
<g>
	<g>
		<path fill="#FFFFFF" d="M475.057,46.939c3.826-5.542,7.68-11.065,11.556-16.571l5.858-8.35l2.929-4.175l1.464-2.087
			c0.491-0.694,0.949-1.413,1.606-1.981l0.069,1.617l-6.288-8.771l0.048,0.035c-1.508-0.311-2.907-0.861-4.281-1.468
			c-1.362-0.632-2.7-1.32-3.93-2.246l0.059,0.013c-3.03,0.318-6.06,0.405-9.09,0.426c-3.03,0.008-6.06-0.064-9.09-0.426l0.057-0.012
			c-1.313,0.806-2.694,1.455-4.092,2.066c-1.404,0.596-2.825,1.152-4.314,1.55l0.053-0.038l-6.267,8.872l0.045-1.452
			c0.381,0.245,0.589,0.62,0.842,0.961l0.739,1.038l1.479,2.076l2.956,4.151l5.914,8.304L475.057,46.939z M475.057,47.417
			l-12.854-16.061l-6.354-7.972l-3.178-3.986l-1.588-1.993l-0.794-0.997c-0.259-0.337-0.562-0.641-0.692-1.073l-0.33-1.09
			l0.376-0.363l7.809-7.549l0.019-0.018l0.034-0.021c1.312-0.808,2.693-1.457,4.092-2.066c1.405-0.594,2.826-1.15,4.314-1.55
			l0.033-0.009l0.023-0.003c3.03-0.361,6.06-0.434,9.09-0.426c3.03,0.021,6.06,0.107,9.09,0.426l0.06,0.013
			c1.507,0.312,2.907,0.862,4.281,1.468c1.363,0.63,2.701,1.318,3.931,2.246l0.048,0.036l7.983,7.26l0.569,0.518l-0.5,1.1
			c-0.36,0.792-0.921,1.434-1.448,2.1l-1.59,1.994l-3.181,3.987l-6.36,7.974c-4.231,5.323-8.485,10.628-12.767,15.913
			L475.057,47.417z"/>
	</g>
	<g>
		<path fill="#FFFFFF" d="M457.622,6.298l4.366,1.761l2.183,0.88l1.092,0.44c0.372,0.129,0.688,0.376,1.083,0.458l-0.282-0.063
			c0.373,0.076,0.745,0.019,1.118,0.029l1.118-0.015l2.236-0.031l4.472-0.039c2.981,0.044,5.963,0.026,8.944,0.125l-0.25,0.055
			l8.596-3.504l0.121,0.261l-8.217,4.317l-0.096,0.05l-0.154,0.005c-2.981,0.1-5.963,0.081-8.944,0.125l-4.472-0.039l-2.236-0.031
			l-1.118-0.015c-0.373,0.01-0.745-0.047-1.118,0.029l-0.162,0.033l-0.12-0.097c-0.314-0.252-0.706-0.34-1.043-0.544l-1.034-0.562
			l-2.068-1.124l-4.137-2.248L457.622,6.298z"/>
	</g>
	<g>
		<path fill="#FFFFFF" d="M451.733,14.472l8.31,7.588l-0.464-0.192c5.148-0.051,10.297-0.025,15.444-0.037l15.445,0.107
			l-0.417,0.175l8.134-7.641l0.205,0.201l-7.505,8.26l-0.157,0.173l-0.26,0.002l-15.445,0.107
			c-5.147-0.012-10.296,0.015-15.444-0.037l-0.291-0.003l-0.173-0.189l-7.585-8.312L451.733,14.472z"/>
	</g>
	<g>
		<polygon fill="#FFFFFF" points="458.984,22.229 465.446,10.372 465.704,10.5 460.174,22.819 		"/>
	</g>
	<g>
		<polygon fill="#FFFFFF" points="489.996,22.784 483.826,10.733 484.078,10.594 490.941,22.264 		"/>
	</g>
	<path fill="none" stroke="#FFFFFF" stroke-width="0.2872" stroke-miterlimit="10" d="M490.469,22.947"/>
	<g>
		<polygon fill="#FFFFFF" points="490.889,23.051 475.525,47.474 475.06,48.213 474.592,47.477 459.041,23.012 460.51,22.101 
			475.523,46.899 474.59,46.903 489.264,22.061 		"/>
	</g>
</g>
<g>
	<path fill-rule="evenodd" clip-rule="evenodd" d="M512.306,79.038c0,0.126,0,0.271,0,0.415c-0.001,3.638-0.001,7.275-0.002,10.913
		c-0.001,0.529-0.016,0.544-0.554,0.544c-1.684,0-3.368,0.001-5.052,0c-0.46,0-0.504-0.044-0.504-0.501
		c-0.002-10.272-0.002-20.545-0.011-30.818c0-0.301,0.097-0.4,0.383-0.447c3.278-0.542,6.583-0.679,9.896-0.586
		c2.107,0.059,4.179,0.389,6.119,1.273c2.985,1.359,4.71,3.694,5.199,6.917c0.361,2.39,0.059,4.708-1.091,6.859
		c-1.096,2.046-2.834,3.389-4.94,4.279c-1.971,0.832-4.043,1.182-6.17,1.21C514.507,79.11,513.432,79.061,512.306,79.038z
		 M512.308,68.81C512.308,68.81,512.308,68.81,512.308,68.81c-0.001,1.616,0.009,3.232-0.01,4.848
		c-0.004,0.329,0.118,0.443,0.414,0.449c1.165,0.02,2.331,0.1,3.49,0.045c1.105-0.053,2.164-0.376,3.122-0.962
		c1.564-0.956,2.308-2.395,2.418-4.188c0.146-2.409-0.829-4.453-3.441-5.277c-1.844-0.582-3.722-0.437-5.603-0.227
		c-0.31,0.034-0.401,0.152-0.398,0.465C512.316,65.578,512.308,67.194,512.308,68.81z"/>
	<path fill-rule="evenodd" clip-rule="evenodd" d="M535.561,91.374c-2.82-0.013-5.024-0.396-7.106-1.37
		c-0.609-0.285-0.608-0.285-0.435-0.93c0.305-1.137,0.609-2.274,0.914-3.411c0.119-0.44,0.211-0.475,0.607-0.268
		c1.727,0.902,3.559,1.447,5.508,1.473c0.692,0.009,1.41-0.13,2.078-0.33c0.802-0.239,1.332-0.809,1.447-1.688
		c0.117-0.893-0.137-1.641-0.866-2.2c-0.814-0.625-1.767-0.969-2.719-1.306c-1.382-0.489-2.693-1.105-3.882-1.979
		c-3.63-2.668-3.043-6.983-1.006-9.382c1.292-1.521,2.983-2.356,4.914-2.703c2.886-0.518,5.672-0.162,8.342,1.067
		c0.239,0.11,0.295,0.22,0.218,0.485c-0.351,1.206-0.673,2.42-1.007,3.63c-0.113,0.408-0.22,0.451-0.595,0.257
		c-1.459-0.752-3.005-1.205-4.652-1.147c-0.591,0.021-1.219,0.147-1.75,0.395c-1.414,0.66-1.579,2.438-0.354,3.402
		c0.787,0.62,1.724,0.955,2.651,1.29c1.387,0.5,2.728,1.081,3.94,1.94c3.602,2.548,3.436,7.622,0.938,10.139
		c-1.134,1.143-2.518,1.821-4.056,2.212C537.489,91.258,536.265,91.39,535.561,91.374z"/>
</g>
<g>
	<path fill-rule="evenodd" clip-rule="evenodd" fill="#FFFFFF" d="M512.306,29.085c0,0.126,0,0.271,0,0.415
		c-0.001,3.638-0.001,7.275-0.002,10.913c-0.001,0.529-0.016,0.544-0.554,0.544c-1.684,0-3.368,0.001-5.052,0
		c-0.46,0-0.504-0.044-0.504-0.501c-0.002-10.272-0.002-20.545-0.011-30.818c0-0.301,0.097-0.4,0.383-0.447
		c3.278-0.542,6.583-0.679,9.896-0.586c2.107,0.059,4.179,0.389,6.119,1.273c2.985,1.359,4.71,3.694,5.199,6.917
		c0.361,2.39,0.059,4.708-1.091,6.859c-1.096,2.046-2.834,3.389-4.94,4.279c-1.971,0.832-4.043,1.182-6.17,1.21
		C514.507,29.157,513.432,29.107,512.306,29.085z M512.308,18.857C512.308,18.857,512.308,18.857,512.308,18.857
		c-0.001,1.616,0.009,3.232-0.01,4.848c-0.004,0.329,0.118,0.443,0.414,0.449c1.165,0.02,2.331,0.1,3.49,0.045
		c1.105-0.053,2.164-0.376,3.122-0.962c1.564-0.956,2.308-2.395,2.418-4.188c0.146-2.409-0.829-4.453-3.441-5.277
		c-1.844-0.582-3.722-0.437-5.603-0.227c-0.31,0.034-0.401,0.152-0.398,0.465C512.316,15.625,512.308,17.241,512.308,18.857z"/>
	<path fill-rule="evenodd" clip-rule="evenodd" fill="#FFFFFF" d="M535.561,41.421c-2.82-0.013-5.024-0.396-7.106-1.37
		c-0.609-0.285-0.608-0.285-0.435-0.93c0.305-1.137,0.609-2.274,0.914-3.411c0.119-0.44,0.211-0.475,0.607-0.268
		c1.727,0.902,3.559,1.447,5.508,1.473c0.692,0.009,1.41-0.13,2.078-0.33c0.802-0.239,1.332-0.809,1.447-1.688
		c0.117-0.893-0.137-1.641-0.866-2.2c-0.814-0.625-1.767-0.969-2.719-1.306c-1.382-0.489-2.693-1.105-3.882-1.979
		c-3.63-2.668-3.043-6.983-1.006-9.382c1.292-1.521,2.983-2.356,4.914-2.703c2.886-0.518,5.672-0.162,8.342,1.067
		c0.239,0.11,0.295,0.22,0.218,0.485c-0.351,1.206-0.673,2.42-1.007,3.63c-0.113,0.408-0.22,0.451-0.595,0.257
		c-1.459-0.752-3.005-1.205-4.652-1.147c-0.591,0.021-1.219,0.147-1.75,0.395c-1.414,0.66-1.579,2.438-0.354,3.402
		c0.787,0.62,1.724,0.955,2.651,1.29c1.387,0.5,2.728,1.081,3.94,1.94c3.602,2.548,3.436,7.622,0.938,10.139
		c-1.134,1.143-2.518,1.821-4.056,2.212C537.489,41.305,536.265,41.437,535.561,41.421z"/>
</g>
<g>
	<path fill-rule="evenodd" clip-rule="evenodd" d="M569.375,59.513c1.146,0,2.291,0.008,3.438-0.005
		c0.275-0.003,0.395,0.091,0.475,0.356c3.039,10.096,6.086,20.189,9.131,30.283c0.183,0.604,0.016,0.821-0.62,0.821
		c-1.676-0.001-3.352-0.008-5.027,0.004c-0.342,0.002-0.501-0.128-0.597-0.451c-0.717-2.413-1.453-4.82-2.167-7.233
		c-0.084-0.285-0.197-0.395-0.509-0.393c-2.626,0.013-5.254,0.012-7.881,0c-0.289-0.001-0.413,0.085-0.488,0.368
		c-0.6,2.244-1.215,4.483-1.829,6.723c-0.048,0.176-0.109,0.351-0.185,0.518c-0.138,0.305-0.379,0.462-0.717,0.462
		c-1.622-0.001-3.244,0.002-4.865-0.004c-0.403-0.002-0.481-0.134-0.351-0.58c0.464-1.575,0.933-3.149,1.401-4.723
		c2.274-7.64,4.55-15.281,6.817-22.923c0.077-0.262,0.079-0.553,0.084-0.831c0.011-0.659,0.012-1.319-0.001-1.979
		c-0.007-0.309,0.113-0.421,0.421-0.419C567.061,59.52,568.218,59.513,569.375,59.513z M572.605,77.433
		c-0.988-4.068-1.969-8.104-2.95-12.139c-0.022,0-0.045-0.001-0.067-0.001c-0.971,4.036-1.941,8.072-2.921,12.14
		C568.653,77.433,570.594,77.433,572.605,77.433z"/>
	<path fill-rule="evenodd" clip-rule="evenodd" d="M591.717,67.856c0,0.149,0,0.276,0,0.404c-0.003,7.425-0.006,14.85-0.008,22.275
		c0,0.43-0.001,0.431-0.414,0.431c-1.837,0-3.675-0.006-5.512,0.006c-0.296,0.002-0.383-0.081-0.383-0.379
		c0.005-7.468,0.002-14.937-0.005-22.404c0-0.247,0.04-0.374,0.33-0.373c1.891,0.01,3.782,0.005,5.674,0.006
		C591.494,67.823,591.588,67.842,591.717,67.856z"/>
	<path fill-rule="evenodd" clip-rule="evenodd" d="M591.861,62.162c0.004,1.796-1.396,3.116-3.312,3.12
		c-1.869,0.004-3.263-1.331-3.27-3.131c-0.007-1.853,1.39-3.214,3.3-3.217C590.484,58.931,591.855,60.28,591.861,62.162z"/>
</g>
<g>
	<path fill-rule="evenodd" clip-rule="evenodd" fill="#FFFFFF" d="M569.375,9.56c1.146,0,2.291,0.008,3.438-0.005
		c0.275-0.003,0.395,0.091,0.475,0.356c3.039,10.096,6.086,20.189,9.131,30.283c0.183,0.604,0.016,0.821-0.62,0.821
		c-1.676-0.001-3.352-0.008-5.027,0.004c-0.342,0.002-0.501-0.128-0.597-0.451c-0.717-2.413-1.453-4.82-2.167-7.233
		c-0.084-0.285-0.197-0.395-0.509-0.393c-2.626,0.013-5.254,0.012-7.881,0c-0.289-0.001-0.413,0.085-0.488,0.368
		c-0.6,2.244-1.215,4.483-1.829,6.723c-0.048,0.176-0.109,0.351-0.185,0.518c-0.138,0.305-0.379,0.462-0.717,0.462
		c-1.622-0.001-3.244,0.002-4.865-0.004c-0.403-0.002-0.481-0.134-0.351-0.58c0.464-1.575,0.933-3.149,1.401-4.723
		c2.274-7.64,4.55-15.281,6.817-22.923c0.077-0.262,0.079-0.553,0.084-0.831c0.011-0.659,0.012-1.319-0.001-1.979
		c-0.007-0.309,0.113-0.421,0.421-0.419C567.061,9.566,568.218,9.56,569.375,9.56z M572.605,27.479
		c-0.988-4.068-1.969-8.104-2.95-12.139c-0.022,0-0.045-0.001-0.067-0.001c-0.971,4.036-1.941,8.072-2.921,12.14
		C568.653,27.479,570.594,27.479,572.605,27.479z"/>
	<path fill-rule="evenodd" clip-rule="evenodd" fill="#FFFFFF" d="M591.717,17.903c0,0.149,0,0.276,0,0.404
		c-0.003,7.425-0.006,14.85-0.008,22.275c0,0.43-0.001,0.431-0.414,0.431c-1.837,0-3.675-0.006-5.512,0.006
		c-0.296,0.002-0.383-0.081-0.383-0.379c0.005-7.468,0.002-14.937-0.005-22.404c0-0.247,0.04-0.374,0.33-0.373
		c1.891,0.01,3.782,0.005,5.674,0.006C591.494,17.87,591.588,17.889,591.717,17.903z"/>
	<path fill-rule="evenodd" clip-rule="evenodd" fill="#FFFFFF" d="M591.861,12.209c0.004,1.796-1.396,3.116-3.312,3.12
		c-1.869,0.004-3.263-1.331-3.27-3.131c-0.007-1.853,1.39-3.214,3.3-3.217C590.484,8.978,591.855,10.327,591.861,12.209z"/>
</g>
<g>
	<path fill-rule="evenodd" clip-rule="evenodd" d="M608.591,81.002c-1.153,0.131-2.166-0.284-2.75,0.218
		c-0.576,0.496-0.435,1.545-0.605,2.351c-0.456,2.161-0.445,2.163-2.64,2.163c-1.692,0-1.697-0.001-1.378-1.641
		c0.991-5.097,2-10.19,2.963-15.292c0.123-0.653,0.396-0.798,1-0.791c2.257,0.03,4.513,0.011,6.77,0.015
		c0.325,0,0.653,0.014,0.979,0.041c3.4,0.281,5.242,2.571,4.786,5.946c-0.549,4.053-3.185,6.582-7.321,6.98
		C609.688,81.061,608.971,81.002,608.591,81.002z M609.679,70.861c-0.476,0-0.951,0.008-1.426-0.003
		c-0.381-0.009-0.585,0.12-0.661,0.535c-0.384,2.072-0.794,4.139-1.203,6.206c-0.081,0.407,0.016,0.621,0.474,0.614
		c1.186-0.019,2.375,0.067,3.551-0.182c1.394-0.293,2.351-1.081,2.826-2.433c0.288-0.817,0.479-1.65,0.447-2.527
		c-0.04-1.152-0.492-1.727-1.618-2.034C611.282,70.822,610.479,70.863,609.679,70.861z"/>
	<path fill-rule="evenodd" clip-rule="evenodd" d="M639.317,68.023c1.335,0.074,2.941-0.152,4.528,0.182
		c2.838,0.598,4.286,2.591,3.991,5.49c-0.435,4.279-3.213,6.992-7.559,7.312c-1.239,0.091-2.489,0.062-3.733,0.039
		c-0.539-0.01-0.795,0.141-0.883,0.705c-0.166,1.083-0.44,2.149-0.606,3.232c-0.091,0.599-0.366,0.789-0.942,0.761
		c-0.769-0.038-1.545-0.055-2.312,0.002c-0.832,0.063-0.752-0.384-0.645-0.936c0.783-3.984,1.557-7.97,2.334-11.956
		c0.255-1.309,0.552-2.612,0.753-3.929c0.104-0.686,0.352-0.954,1.075-0.919C636.562,68.066,637.811,68.023,639.317,68.023z
		 M639.797,70.862c-0.504,0-1.009,0.007-1.513-0.002c-0.354-0.006-0.525,0.14-0.593,0.503c-0.391,2.069-0.796,4.136-1.208,6.201
		c-0.092,0.459,0.038,0.666,0.53,0.651c0.681-0.021,1.365,0.013,2.048-0.009c3.17-0.099,4.961-2.108,4.72-5.283
		c-0.075-0.996-0.532-1.557-1.511-1.854C641.461,70.824,640.628,70.859,639.797,70.862z"/>
	<path fill-rule="evenodd" clip-rule="evenodd" d="M624.815,70.893c-2.028,0-2.027,0-2.41,1.982
		c-0.478,2.476-0.977,4.949-1.421,7.431c-0.106,0.593-0.347,0.798-0.935,0.762c-0.709-0.044-1.427-0.056-2.135,0.002
		c-0.765,0.061-0.973-0.156-0.809-0.942c0.629-3.02,1.196-6.053,1.786-9.081c0.447-2.301,0.923-4.597,1.322-6.906
		c0.118-0.682,0.4-0.889,1.053-0.848c0.769,0.049,1.544,0.031,2.314,0.007c0.542-0.018,0.661,0.207,0.556,0.705
		c-0.23,1.073-0.404,2.159-0.638,3.231c-0.128,0.586,0.04,0.793,0.655,0.798c1.629,0.015,3.266-0.138,4.884,0.176
		c2.368,0.459,3.32,1.638,2.951,4.013c-0.433,2.782-1.044,5.537-1.566,8.305c-0.075,0.392-0.267,0.545-0.666,0.535
		c-0.831-0.02-1.667-0.06-2.492,0.011c-0.826,0.07-0.854-0.295-0.721-0.942c0.435-2.091,0.837-4.188,1.24-6.285
		c0.487-2.53,0.149-2.934-2.436-2.952C625.172,70.892,624.993,70.893,624.815,70.893z"/>
</g>
<g>
	<path fill-rule="evenodd" clip-rule="evenodd" fill="#FFFFFF" d="M608.591,31.002c-1.153,0.131-2.166-0.284-2.75,0.218
		c-0.576,0.496-0.435,1.545-0.605,2.351c-0.456,2.161-0.445,2.163-2.64,2.163c-1.692,0-1.697-0.001-1.378-1.641
		c0.991-5.097,2-10.19,2.963-15.292c0.123-0.653,0.396-0.798,1-0.791c2.257,0.03,4.513,0.011,6.77,0.015
		c0.325,0,0.653,0.014,0.979,0.041c3.4,0.281,5.242,2.571,4.786,5.946c-0.549,4.053-3.185,6.582-7.321,6.98
		C609.688,31.061,608.971,31.002,608.591,31.002z M609.679,20.861c-0.476,0-0.951,0.008-1.426-0.003
		c-0.381-0.009-0.585,0.12-0.661,0.535c-0.384,2.072-0.794,4.139-1.203,6.206c-0.081,0.407,0.016,0.621,0.474,0.614
		c1.186-0.019,2.375,0.067,3.551-0.182c1.394-0.293,2.351-1.081,2.826-2.433c0.288-0.817,0.479-1.65,0.447-2.527
		c-0.04-1.152-0.492-1.727-1.618-2.034C611.282,20.822,610.479,20.863,609.679,20.861z"/>
	<path fill-rule="evenodd" clip-rule="evenodd" fill="#FFFFFF" d="M639.317,18.023c1.335,0.074,2.941-0.152,4.528,0.182
		c2.838,0.598,4.286,2.591,3.991,5.49c-0.435,4.279-3.213,6.992-7.559,7.312c-1.239,0.091-2.489,0.062-3.733,0.039
		c-0.539-0.01-0.795,0.141-0.883,0.705c-0.166,1.083-0.44,2.149-0.606,3.232c-0.091,0.599-0.366,0.789-0.942,0.761
		c-0.769-0.038-1.545-0.055-2.312,0.002c-0.832,0.063-0.752-0.384-0.645-0.936c0.783-3.984,1.557-7.97,2.334-11.956
		c0.255-1.309,0.552-2.612,0.753-3.929c0.104-0.686,0.352-0.954,1.075-0.919C636.562,18.066,637.811,18.023,639.317,18.023z
		 M639.797,20.862c-0.504,0-1.009,0.007-1.513-0.002c-0.354-0.006-0.525,0.14-0.593,0.503c-0.391,2.069-0.796,4.136-1.208,6.201
		c-0.092,0.459,0.038,0.666,0.53,0.651c0.681-0.021,1.365,0.013,2.048-0.009c3.17-0.099,4.961-2.108,4.72-5.283
		c-0.075-0.996-0.532-1.557-1.511-1.854C641.461,20.824,640.628,20.859,639.797,20.862z"/>
	<path fill-rule="evenodd" clip-rule="evenodd" fill="#FFFFFF" d="M624.815,20.893c-2.028,0-2.027,0-2.41,1.982
		c-0.478,2.476-0.977,4.949-1.421,7.431c-0.106,0.593-0.347,0.798-0.935,0.762c-0.709-0.044-1.427-0.056-2.135,0.002
		c-0.765,0.061-0.973-0.156-0.809-0.942c0.629-3.02,1.196-6.053,1.786-9.081c0.447-2.301,0.923-4.597,1.322-6.906
		c0.118-0.682,0.4-0.889,1.053-0.848c0.769,0.049,1.544,0.031,2.314,0.007c0.542-0.018,0.661,0.207,0.556,0.705
		c-0.23,1.073-0.404,2.159-0.638,3.231c-0.128,0.586,0.04,0.793,0.655,0.798c1.629,0.015,3.266-0.138,4.884,0.176
		c2.368,0.459,3.32,1.638,2.951,4.013c-0.433,2.782-1.044,5.537-1.566,8.305c-0.075,0.392-0.267,0.545-0.666,0.535
		c-0.831-0.02-1.667-0.06-2.492,0.011c-0.826,0.07-0.854-0.295-0.721-0.942c0.435-2.091,0.837-4.188,1.24-6.285
		c0.487-2.53,0.149-2.934-2.436-2.952C625.172,20.892,624.993,20.893,624.815,20.893z"/>
</g>
<rect x="599.875" y="150" fill-rule="evenodd" clip-rule="evenodd" width="50" height="50"/>
<path d="M49.368,174.226c0,0.422,0,0.845,0,1.268c-0.307,0.929-0.944,1.611-1.623,2.287c-6.568,6.55-13.127,13.109-19.678,19.678
	c-0.675,0.678-1.358,1.315-2.287,1.623c-0.422,0-0.845,0-1.268,0c-0.873-0.265-1.545-0.812-2.164-1.466
	c-0.77-0.812-1.59-1.577-2.382-2.369c-6.008-6.006-12.017-12.013-18.021-18.022c-1.575-1.575-1.573-3.383-0.007-4.949
	c4.603-4.603,9.205-9.206,13.809-13.808c0.16-0.16,0.329-0.309,0.526-0.495c1.789,1.792,3.555,3.549,5.297,5.329
	c0.112,0.115,0.093,0.423,0.045,0.619c-0.414,1.697,0.222,3.338,1.711,4.193c0.382,0.219,0.454,0.463,0.453,0.851
	c-0.01,4.058-0.011,8.115,0.002,12.173c0.001,0.401-0.099,0.631-0.469,0.847c-1.471,0.852-2.124,2.497-1.701,4.133
	c0.393,1.517,1.824,2.671,3.365,2.712c1.772,0.049,3.211-0.938,3.733-2.556c0.502-1.561-0.07-3.244-1.458-4.172
	c-0.317-0.212-0.446-0.423-0.445-0.809c0.015-4.037,0.009-8.074,0.011-12.11c0-0.152,0.03-0.304,0.059-0.566
	c1.575,1.576,3.061,3.074,4.563,4.557c0.293,0.289,0.416,0.525,0.29,0.975c-0.482,1.719,0.394,3.501,2.023,4.254
	c1.611,0.745,3.542,0.226,4.562-1.227c0.866-1.232,0.904-2.847,0.098-4.117c-0.802-1.266-2.275-1.897-3.77-1.659
	c-0.271,0.042-0.668,0.028-0.837-0.136c-1.64-1.587-3.248-3.207-4.848-4.835c-0.129-0.131-0.207-0.406-0.173-0.59
	c0.523-2.857-1.619-5.017-4.478-4.511c-0.185,0.033-0.461-0.04-0.592-0.168c-1.746-1.72-3.475-3.458-5.205-5.196
	c-0.04-0.039-0.048-0.109-0.08-0.188c1.497-1.494,2.979-3,4.499-4.467c0.307-0.296,0.73-0.522,1.14-0.649
	c1.376-0.426,2.493,0.037,3.49,1.037c6.743,6.766,13.5,13.519,20.263,20.265C48.488,172.624,49.093,173.307,49.368,174.226z"/>
<path fill="#FFFFFF" d="M49.368,124.476c0,0.422,0,0.845,0,1.268c-0.307,0.929-0.944,1.611-1.623,2.287
	c-6.568,6.55-13.127,13.109-19.678,19.678c-0.675,0.678-1.358,1.315-2.287,1.623c-0.422,0-0.845,0-1.268,0
	c-0.873-0.265-1.545-0.812-2.164-1.466c-0.77-0.812-1.59-1.577-2.382-2.369c-6.008-6.006-12.017-12.013-18.021-18.022
	c-1.575-1.575-1.573-3.383-0.007-4.949c4.603-4.603,9.205-9.206,13.809-13.808c0.16-0.16,0.329-0.309,0.526-0.495
	c1.789,1.792,3.555,3.549,5.297,5.329c0.112,0.115,0.093,0.423,0.045,0.619c-0.414,1.697,0.222,3.338,1.711,4.193
	c0.382,0.219,0.454,0.463,0.453,0.851c-0.01,4.058-0.011,8.115,0.002,12.173c0.001,0.401-0.099,0.631-0.469,0.847
	c-1.471,0.852-2.124,2.497-1.701,4.133c0.393,1.517,1.824,2.671,3.365,2.712c1.772,0.049,3.211-0.938,3.733-2.556
	c0.502-1.561-0.07-3.244-1.458-4.172c-0.317-0.212-0.446-0.423-0.445-0.809c0.015-4.037,0.009-8.074,0.011-12.11
	c0-0.152,0.03-0.304,0.059-0.566c1.575,1.576,3.061,3.074,4.563,4.557c0.293,0.289,0.416,0.525,0.29,0.975
	c-0.482,1.719,0.394,3.501,2.023,4.254c1.611,0.745,3.542,0.226,4.562-1.227c0.866-1.232,0.904-2.847,0.098-4.117
	c-0.802-1.266-2.275-1.897-3.77-1.659c-0.271,0.042-0.668,0.028-0.837-0.136c-1.64-1.587-3.248-3.207-4.848-4.835
	c-0.129-0.131-0.207-0.406-0.173-0.59c0.523-2.857-1.619-5.017-4.478-4.511c-0.185,0.033-0.461-0.04-0.592-0.168
	c-1.746-1.72-3.475-3.458-5.205-5.196c-0.04-0.039-0.048-0.109-0.08-0.188c1.497-1.494,2.979-3,4.499-4.467
	c0.307-0.296,0.73-0.522,1.14-0.649c1.376-0.426,2.493,0.037,3.49,1.037c6.743,6.766,13.5,13.519,20.263,20.265
	C48.488,122.874,49.093,123.557,49.368,124.476z"/>
</svg>
