<?xml version="1.0" encoding="utf-8"?>
<!-- Generator: Adobe Illustrator 16.0.0, SVG Export Plug-In . SVG Version: 6.00 Build 0)  -->
<!DOCTYPE svg PUBLIC "-//W3C//DTD SVG 1.1//EN" "http://www.w3.org/Graphics/SVG/1.1/DTD/svg11.dtd">
<svg version="1.1" id="Capa_1" xmlns="http://www.w3.org/2000/svg" xmlns:xlink="http://www.w3.org/1999/xlink" x="0px" y="0px"
	 width="257.325px" height="82.936px" viewBox="0 0 257.325 82.936" enable-background="new 0 0 257.325 82.936"
	 xml:space="preserve">
<g enable-background="new    ">
	<path fill="#FFFFFF" d="M16.744,45.932l26.727,11.336v14.039L3.224,52.797V39.173l40.247-18.615v14.144L16.744,45.932z"/>
</g>
<g enable-background="new    ">
</g>
<g enable-background="new    ">
	<path fill="#FFFFFF" d="M71.393,78.168c-2.877-1.213-5.339-2.876-7.384-4.992c-2.045-2.114-3.624-4.609-4.731-7.487
		c-1.11-2.877-1.664-5.98-1.664-9.308v-4.992h13.728v5.408c0,1.247,0.19,2.443,0.572,3.588c0.38,1.144,0.97,2.184,1.768,3.119
		c0.796,0.937,1.82,1.683,3.068,2.236c1.248,0.556,2.704,0.832,4.368,0.832c1.732,0,3.224-0.276,4.472-0.832
		c1.248-0.554,2.27-1.3,3.068-2.236c0.796-0.936,1.386-1.976,1.768-3.119c0.38-1.145,0.572-2.341,0.572-3.588V6.462h13.728v49.919
		c0,3.327-0.556,6.431-1.664,9.308c-1.11,2.878-2.688,5.373-4.732,7.487c-2.045,2.116-4.523,3.779-7.436,4.992
		c-2.912,1.212-6.171,1.819-9.776,1.819C77.511,79.987,74.269,79.38,71.393,78.168z"/>
</g>
<g enable-background="new    ">
	<path fill="#FFFFFF" d="M148.61,78.635h-13.832V50.972L110.547,6.462h15.496l15.6,30.887l15.703-30.887h15.495l-24.23,44.511
		V78.635z"/>
</g>
<g enable-background="new    ">
	<path fill="#FFFFFF" d="M190.624,1.261h14.248l-21.943,77.374H168.68L190.624,1.261z"/>
</g>
<g enable-background="new    ">
</g>
<g enable-background="new    ">
	<path fill="#FFFFFF" d="M254.165,54.797l-40.351,18.511V59.268l26.728-11.336l-26.728-11.231V22.557l40.351,18.615V54.797z"/>
</g>
</svg>
